<svg xmlns="http://www.w3.org/2000/svg" width="1024" height="1024" viewBox="0 0 1024 1024" role="img" aria-label="NekoAI Cute Cat Icon Warm Palette">
  <defs>
    <linearGradient id="bg" x1="0" y1="0" x2="1" y2="1">
      <stop offset="0%" stop-color="#ff9db2"/>
      <stop offset="100%" stop-color="#ffb86b"/>
    </linearGradient>
    <linearGradient id="face" x1="0" y1="0" x2="0" y2="1">
      <stop offset="0%" stop-color="#fffdf8"/>
      <stop offset="100%" stop-color="#fff5ea"/>
    </linearGradient>
    <linearGradient id="innerEar" x1="0" y1="0" x2="0" y2="1">
      <stop offset="0%" stop-color="#ffd2de"/>
      <stop offset="100%" stop-color="#ff9fbb"/>
    </linearGradient>
    <filter id="soft" x="-20%" y="-20%" width="140%" height="140%">
      <feDropShadow dx="0" dy="12" stdDeviation="14" flood-color="#5a2c22" flood-opacity="0.2"/>
    </filter>
  </defs>

  <rect x="88" y="88" width="848" height="848" rx="210" fill="url(#bg)"/>

  <g filter="url(#soft)">
    <path d="M278 462 L352 240 L478 408 Z" fill="#fff7f2" opacity="0.98"/>
    <path d="M746 462 L672 240 L546 408 Z" fill="#fff7f2" opacity="0.98"/>

    <path d="M332 426 L355 288 L435 388 Z" fill="url(#innerEar)"/>
    <path d="M692 426 L669 288 L589 388 Z" fill="url(#innerEar)"/>

    <ellipse cx="512" cy="566" rx="274" ry="248" fill="url(#face)"/>
  </g>

  <ellipse cx="426" cy="550" rx="42" ry="46" fill="#6f3b3b"/>
  <ellipse cx="598" cy="550" rx="42" ry="46" fill="#6f3b3b"/>
  <circle cx="415" cy="538" r="13" fill="#fff" opacity="0.95"/>
  <circle cx="587" cy="538" r="13" fill="#fff" opacity="0.95"/>
  <circle cx="427" cy="552" r="7" fill="#fff" opacity="0.7"/>
  <circle cx="599" cy="552" r="7" fill="#fff" opacity="0.7"/>

  <ellipse cx="350" cy="610" rx="36" ry="22" fill="#ff9fb7" opacity="0.68"/>
  <ellipse cx="674" cy="610" rx="36" ry="22" fill="#ff9fb7" opacity="0.68"/>

  <path d="M512 598 L538 632 L486 632 Z" fill="#ff739f"/>
  <path d="M438 664 Q512 746 586 664" stroke="#9b5a5a" stroke-width="20" stroke-linecap="round" fill="none"/>

  <path d="M304 612 H418" stroke="#f0c8c8" stroke-width="14" stroke-linecap="round"/>
  <path d="M294 648 H414" stroke="#f0c8c8" stroke-width="12" stroke-linecap="round"/>
  <path d="M720 612 H606" stroke="#f0c8c8" stroke-width="14" stroke-linecap="round"/>
  <path d="M730 648 H610" stroke="#f0c8c8" stroke-width="12" stroke-linecap="round"/>

  <rect x="676" y="676" width="184" height="184" rx="50" fill="#6b3f2b" opacity="0.92"/>
  <path d="M742 767 L774 735" stroke="#ffe6a8" stroke-width="20" stroke-linecap="round"/>
  <path d="M774 735 L806 767" stroke="#ffe6a8" stroke-width="20" stroke-linecap="round"/>
  <path d="M774 735 V804" stroke="#ffe6a8" stroke-width="20" stroke-linecap="round"/>
</svg>
